<?xml version="1.0" standalone="no"?>
<!DOCTYPE svg PUBLIC "-//W3C//DTD SVG 20010904//EN"
 "http://www.w3.org/TR/2001/REC-SVG-20010904/DTD/svg10.dtd">
<svg version="1.0" xmlns="http://www.w3.org/2000/svg"
 width="128.000000pt" height="128.000000pt" viewBox="0 0 128.000000 128.000000"
 preserveAspectRatio="xMidYMid meet">
<metadata>
Created by potrace 1.14, written by Peter Selinger 2001-2017
</metadata>
<g transform="translate(0.000000,128.000000) scale(0.100000,-0.100000)"
fill="#000000" stroke="none">
<path d="M502 1265 c-128 -28 -266 -112 -348 -213 -98 -119 -160 -305 -151
-447 14 -205 116 -383 284 -495 111 -74 209 -103 353 -103 98 0 127 4 197 27
195 64 348 217 409 410 52 166 39 318 -43 486 -20 41 -36 84 -37 95 -1 12 -9
21 -23 23 -27 4 -35 25 -23 57 13 35 -12 58 -59 52 -36 -4 -53 3 -159 72 -69
45 -274 63 -400 36z m372 -37 c8 -14 3 -32 -24 -84 -19 -36 -42 -68 -50 -71
-8 -4 -23 -13 -32 -21 -22 -19 -22 -15 -2 33 8 21 13 43 10 51 -3 7 -1 16 5
19 5 4 7 11 4 16 -4 5 2 9 12 10 10 0 13 3 6 5 -12 5 -8 29 10 52 13 17 47 11
61 -10z m-217 -3 c3 -9 -5 -52 -17 -96 -21 -72 -25 -80 -44 -75 -12 3 -27 6
-33 6 -26 0 -9 154 19 171 22 14 68 10 75 -6z m106 -22 c4 -2 7 -11 7 -20 0
-12 -7 -14 -33 -9 -22 4 -40 1 -55 -10 -22 -15 -23 -15 -16 13 4 15 9 32 11
36 4 7 69 0 86 -10z m-213 3 c0 -11 -19 -15 -25 -6 -3 5 1 10 9 10 9 0 16 -2
16 -4z m-41 -15 c12 -8 10 -20 -14 -73 -16 -34 -30 -79 -32 -98 -5 -55 -10
-62 -32 -51 -19 11 -35 -1 -59 -44 -10 -17 -11 -12 -12 29 0 52 -24 157 -42
186 -15 24 5 50 38 50 27 0 44 -26 45 -67 0 -25 2 -23 13 13 7 23 16 46 20 53
9 13 55 14 75 2z m468 -27 c4 -11 -1 -22 -12 -30 -10 -8 -16 -14 -12 -14 3 0
-5 -25 -18 -55 -14 -30 -29 -74 -35 -97 -6 -24 -20 -54 -30 -68 -30 -39 -25
-4 10 65 35 72 36 75 9 103 -21 24 -20 47 7 90 18 27 71 31 81 6z m-221 -29
c7 -16 -37 -146 -46 -140 -4 2 -4 -9 -2 -26 5 -34 -1 -36 -27 -10 -10 10 -23
20 -28 22 -6 2 -13 27 -16 54 -5 34 -4 43 2 30 9 -19 10 -19 10 3 1 13 8 36
16 52 13 25 22 30 51 30 21 0 37 -6 40 -15z m338 -1 c9 -8 16 -17 16 -18 0 -2
-22 -40 -50 -86 -27 -46 -50 -88 -50 -94 0 -6 6 -2 12 9 25 46 109 107 126 91
10 -11 -13 -61 -28 -61 -20 0 -95 -68 -81 -73 6 -2 24 10 40 27 34 36 51 39
76 11 26 -29 12 -59 -53 -112 -96 -79 -109 -91 -63 -59 80 56 116 33 53 -32
-22 -23 -45 -52 -51 -64 -6 -13 -27 -27 -49 -33 -44 -12 -65 -13 -58 -2 2 4
-5 8 -17 9 -12 0 -16 -1 -9 -4 6 -3 12 -10 12 -15 0 -6 -3 -8 -7 -5 -3 4 -12
2 -20 -4 -10 -9 -13 -6 -14 12 l-1 24 -7 -25 c-6 -21 -13 -25 -48 -27 -36 -1
-42 1 -46 20 -4 19 -4 18 -6 -4 -1 -21 -7 -28 -28 -32 -16 -3 -38 -8 -49 -12
-20 -6 -22 -2 -28 52 -9 77 -26 153 -35 153 -4 0 -7 15 -6 34 0 19 -2 33 -6
30 -9 -5 -20 26 -13 37 3 5 0 8 -7 7 -22 -5 -21 30 0 51 12 12 32 21 46 21 22
0 30 -10 54 -62 l28 -63 7 59 c3 32 4 61 1 64 -3 3 -5 -7 -5 -23 0 -16 -3 -26
-6 -22 -3 3 -3 25 1 49 6 35 9 39 16 23 7 -19 8 -19 8 1 2 53 76 98 120 74 21
-11 29 -40 12 -40 -6 0 -9 -8 -9 -17 1 -10 -9 -38 -21 -63 -35 -72 -60 -187
-52 -245 l6 -50 12 60 c30 160 97 255 136 194 7 -12 3 -31 -16 -73 -15 -32
-30 -55 -35 -52 -5 3 -9 -1 -9 -8 0 -22 24 -12 49 19 12 16 16 25 8 20 -8 -5
6 11 31 36 25 24 36 36 24 26 -20 -16 -35 -14 -35 5 0 5 5 6 11 2 7 -4 4 7 -7
25 -10 17 -24 31 -31 31 -7 0 -13 5 -13 11 0 5 -5 7 -11 3 -8 -4 -9 1 -4 17 3
13 9 33 12 44 14 50 44 106 53 100 6 -4 1 -24 -14 -53 -41 -82 -39 -100 3 -23
61 114 92 139 125 105z m-559 -60 c-4 -29 -11 -44 -21 -44 -25 0 -26 26 -3 72
25 49 34 38 24 -28z m323 41 c-6 -14 -13 -23 -15 -21 -5 5 15 46 22 46 3 0 -1
-11 -7 -25z m-544 -28 c1 -8 7 -21 13 -28 10 -14 26 -119 26 -174 0 -16 -6
-45 -14 -63 l-14 -33 -42 136 c-23 74 -40 142 -37 150 5 12 54 36 62 30 2 -2
4 -10 6 -18z m304 -79 c2 -9 -9 -30 -24 -48 -21 -24 -27 -43 -27 -76 0 -34 -4
-44 -14 -40 -8 3 -12 2 -8 -3 9 -15 -6 -43 -20 -37 -16 6 -28 -21 -15 -29 17
-11 11 -27 -7 -20 -15 5 -16 4 -5 -6 18 -19 14 -33 -5 -18 -16 13 -17 12 -4
-3 11 -15 11 -21 0 -35 -7 -10 -9 -15 -5 -11 5 4 15 3 22 -3 9 -8 11 -5 7 10
-3 13 -1 21 6 21 7 0 9 -4 6 -10 -4 -6 1 -7 11 -3 13 5 14 8 5 11 -11 4 -11 6
0 14 11 8 10 9 -3 4 -10 -3 -18 -3 -18 0 0 12 41 93 50 99 16 10 75 -124 61
-138 -8 -8 -11 -7 -11 3 0 19 -30 50 -49 49 -11 0 -9 -4 7 -11 19 -10 49 -77
44 -100 -1 -5 2 -8 8 -8 5 0 10 -13 10 -30 0 -29 -2 -30 -45 -30 -29 0 -45 4
-46 13 0 9 -2 9 -6 0 -6 -17 -94 -5 -110 15 -8 10 -13 46 -13 93 0 66 3 81 27
115 15 21 41 60 59 87 20 28 36 66 40 95 9 63 20 77 48 59 12 -8 22 -21 24
-29z m-368 -71 c0 -4 -10 -5 -23 -2 -26 7 -77 -27 -77 -51 0 -8 15 -31 34 -51
18 -21 41 -53 51 -72 16 -33 16 -34 -1 -27 -63 25 -129 18 -139 -15 -9 -29 10
-47 91 -85 68 -32 73 -36 88 -81 25 -75 75 -393 63 -393 -20 0 -132 110 -170
167 -61 93 -89 177 -95 289 -7 143 26 259 105 366 l46 62 13 -49 c7 -28 13
-53 14 -58z m279 67 c11 -10 -36 -118 -60 -139 -16 -13 -29 -28 -29 -33 0 -6
-9 -29 -20 -53 -21 -48 -26 -115 -10 -168 9 -32 9 -33 -18 -26 -36 9 -52 23
-53 49 -2 20 -2 20 -6 -1 -2 -13 -7 -23 -11 -23 -4 0 -20 34 -36 75 -16 42
-46 101 -68 131 -40 58 -44 80 -17 97 36 23 114 -95 117 -176 1 -24 -2 -35 -9
-31 -6 3 -5 -3 3 -15 12 -20 14 -17 20 38 4 33 14 73 23 90 8 17 15 34 15 38
-2 17 23 94 32 99 17 10 58 -18 58 -39 0 -11 3 -17 7 -14 3 4 6 24 5 44 -2 58
6 75 31 67 12 -3 24 -8 26 -10z m651 -181 c0 -17 -40 -27 -54 -13 -8 9 -5 16
13 31 25 20 40 13 41 -18z m38 -45 c2 -11 -10 -24 -35 -36 -21 -11 -50 -34
-66 -51 -25 -28 -67 -43 -67 -23 0 5 27 36 60 71 44 47 65 62 82 59 13 -2 24
-11 26 -20z m-982 -64 c25 -12 64 -67 64 -89 0 -11 -37 -4 -59 11 -13 9 -42
22 -64 29 -53 15 -70 40 -42 61 21 16 48 13 101 -12z m968 0 c21 -55 -10 -226
-61 -331 -26 -53 -166 -214 -177 -202 -6 6 24 137 41 179 8 19 42 89 74 155
34 69 59 133 59 151 0 21 7 37 23 47 28 20 34 20 41 1z m-484 -239 c-7 -8 -19
-15 -27 -15 -10 0 -12 -6 -8 -20 4 -13 1 -22 -10 -26 -10 -4 -13 -13 -10 -25
5 -14 1 -19 -14 -19 -25 0 -25 1 -6 47 8 20 13 38 10 41 -7 8 -47 -87 -40 -97
7 -12 58 2 92 25 19 12 27 13 33 4 4 -6 10 -11 14 -11 35 5 35 -15 0 -31 -23
-11 -24 -13 -7 -20 13 -6 8 -7 -14 -5 -18 2 -33 0 -33 -4 0 -5 -13 -15 -30
-24 -21 -11 -30 -12 -30 -4 0 7 -8 5 -20 -6 -20 -18 -25 -12 -21 24 2 7 -3 10
-9 6 -6 -4 -9 -12 -7 -18 3 -10 -31 -52 -37 -45 -19 22 -26 51 -16 64 23 27
36 -3 16 -35 -6 -9 -5 -12 4 -9 6 2 18 18 25 35 12 28 12 30 -6 26 -10 -3 -19
-1 -19 5 0 5 8 12 19 15 11 3 24 23 34 51 12 34 13 46 4 43 -6 -2 -17 -21 -22
-41 -13 -44 -39 -64 -61 -46 -10 9 -14 9 -14 1 0 -6 -5 -11 -11 -11 -6 0 -9
17 -6 45 4 39 2 45 -13 45 -11 0 -22 -4 -25 -10 -3 -5 -1 -10 4 -10 6 0 11 -7
11 -15 0 -8 -4 -15 -10 -15 -5 0 -10 -11 -10 -24 0 -14 -4 -27 -9 -30 -10 -7
-21 115 -11 126 3 5 33 9 65 10 57 3 60 2 63 -21 2 -13 -2 -35 -9 -47 -7 -13
-9 -27 -6 -30 7 -8 27 39 27 64 1 39 22 49 109 51 46 1 52 -1 41 -14z m-186
-134 c3 -5 -6 -12 -20 -15 -24 -7 -25 -8 -10 -25 9 -10 13 -21 9 -25 -4 -4 -1
-11 6 -15 9 -6 10 -11 2 -15 -6 -4 -11 -2 -11 4 0 6 -5 8 -11 4 -9 -5 -10 1
-5 20 5 20 3 26 -5 21 -6 -4 -9 -20 -7 -36 5 -33 -5 -38 -22 -11 -10 15 -11
15 -6 0 2 -9 -2 -22 -10 -28 -12 -11 -13 -7 -8 21 4 19 11 40 17 47 6 8 6 12
-2 12 -6 0 -11 -4 -11 -8 0 -5 -7 -17 -15 -28 -13 -16 -14 -16 -9 -1 5 13 1
17 -15 17 -27 0 -27 21 -1 38 14 9 20 9 20 1 0 -8 4 -8 13 -1 10 9 66 28 89
31 4 1 9 -3 12 -8z m-117 -123 c-3 -8 -6 -5 -6 6 -1 11 2 17 5 13 3 -3 4 -12
1 -19z m3 -33 c-7 -9 -15 -13 -19 -10 -3 3 1 10 9 15 21 14 24 12 10 -5z"/>
<path d="M381 994 c0 -11 3 -14 6 -6 3 7 2 16 -1 19 -3 4 -6 -2 -5 -13z"/>
<path d="M815 990 c3 -5 8 -10 11 -10 2 0 4 5 4 10 0 6 -5 10 -11 10 -5 0 -7
-4 -4 -10z"/>
<path d="M807 969 c7 -9 10 -19 6 -22 -3 -4 -1 -7 5 -7 17 0 15 16 -5 31 -16
12 -17 12 -6 -2z"/>
<path d="M1050 825 c-24 -25 -42 -45 -39 -45 3 0 25 20 49 45 24 25 42 45 39
45 -3 0 -25 -20 -49 -45z"/>
<path d="M692 780 c0 -14 2 -19 5 -12 2 6 2 18 0 25 -3 6 -5 1 -5 -13z"/>
<path d="M741 774 c0 -11 3 -14 6 -6 3 7 2 16 -1 19 -3 4 -6 -2 -5 -13z"/>
<path d="M752 730 c0 -14 2 -19 5 -12 2 6 2 18 0 25 -3 6 -5 1 -5 -13z"/>
<path d="M862 720 c0 -14 2 -19 5 -12 2 6 2 18 0 25 -3 6 -5 1 -5 -13z"/>
<path d="M886 694 c-4 -14 -5 -28 -3 -31 3 -2 8 8 11 23 4 14 5 28 3 31 -3 2
-8 -8 -11 -23z"/>
<path d="M963 711 c1 -3 -4 -16 -11 -28 -17 -32 -10 -29 15 5 15 20 17 29 8
29 -8 0 -13 -3 -12 -6z"/>
<path d="M762 680 c0 -14 2 -19 5 -12 2 6 2 18 0 25 -3 6 -5 1 -5 -13z"/>
<path d="M495 640 c10 -11 20 -20 23 -20 3 0 -3 9 -13 20 -10 11 -20 20 -23
20 -3 0 3 -9 13 -20z"/>
<path d="M451 874 c0 -11 3 -14 6 -6 3 7 2 16 -1 19 -3 4 -6 -2 -5 -13z"/>
<path d="M235 849 c-4 -6 -4 -13 -1 -16 3 -4 6 -1 6 6 0 7 5 9 12 5 7 -4 8 -3
4 4 -9 15 -13 15 -21 1z"/>
<path d="M520 430 c0 -5 5 -10 10 -10 6 0 10 5 10 10 0 6 -4 10 -10 10 -5 0
-10 -4 -10 -10z"/>
<path d="M699 363 c-17 -4 -46 -49 -37 -58 3 -3 17 10 32 30 15 19 26 34 24
34 -2 -1 -10 -3 -19 -6z"/>
<path d="M600 340 c0 -6 4 -10 9 -10 5 0 7 -9 4 -21 -5 -19 -4 -20 15 -8 11 7
23 22 26 34 5 20 5 20 -9 1 -8 -11 -15 -15 -15 -9 0 6 -7 13 -15 17 -8 3 -15
1 -15 -4z"/>
<path d="M400 300 c0 -5 7 -10 16 -10 8 0 12 5 9 10 -3 6 -10 10 -16 10 -5 0
-9 -4 -9 -10z"/>
</g>
</svg>
